<svg t="1713852304544" class="icon" viewBox="0 0 1024 1024" version="1.1" xmlns="http://www.w3.org/2000/svg" p-id="10119"><path d="M912.896 238.762667c-7.68 0-15.189333-3.413333-20.309333-9.898667l-109.056-140.970667H240.298667l-109.397334 140.970667c-8.704 11.093333-24.746667 13.141333-35.84 4.608-11.093333-8.704-13.141333-24.746667-4.608-36.010667l117.077334-150.869333c4.778667-6.314667 12.288-9.898667 20.309333-9.898667h568.32c7.850667 0 15.36 3.584 20.309333 9.898667l116.736 150.869333c8.704 11.264 6.656 27.306667-4.608 35.84-4.778667 3.754667-10.24 5.461333-15.701333 5.461334z" fill="currentColor" p-id="10120"></path><path d="M872.277333 989.866667H151.722667a94.037333 94.037333 0 0 1-93.866667-93.866667V270.848c0-51.712 42.154667-93.866667 93.866667-93.866667H872.106667c51.712 0 93.866667 42.154667 93.866666 93.866667V896c0.170667 51.712-41.984 93.866667-93.696 93.866667zM151.722667 228.181333a42.666667 42.666667 0 0 0-42.666667 42.666667V896a42.666667 42.666667 0 0 0 42.666667 42.666667H872.106667a42.666667 42.666667 0 0 0 42.666666-42.666667V270.848a42.666667 42.666667 0 0 0-42.666666-42.666667H151.722667z" fill="currentColor" p-id="10121"></path><path d="M512 799.402667c-6.826667 0-13.312-2.730667-18.090667-7.509334L303.445333 601.429333c-10.069333-10.069333-10.069333-26.282667 0-36.181333s26.282667-10.069333 36.181334 0L512 737.621333l172.373333-172.373333c10.069333-10.069333 26.282667-10.069333 36.181334 0s10.069333 26.282667 0 36.181333L530.090667 791.893333c-4.778667 4.778667-11.264 7.509333-18.090667 7.509334z" fill="currentColor" p-id="10122"></path><path d="M511.829333 799.402667c-14.165333 0-25.6-11.434667-25.6-25.6V393.045333c0-14.165333 11.434667-25.6 25.6-25.6s25.6 11.434667 25.6 25.6v380.928c0 13.994667-11.434667 25.429333-25.6 25.429334z" fill="currentColor" p-id="10123"></path></svg>